<svg width="17" height="21" viewBox="0 0 17 21" fill="none" xmlns="http://www.w3.org/2000/svg">
<path d="M9.50325 2.5L14.3333 7.33V18.5H2.33325V2.5H9.50325ZM10.3333 0.5H2.33325C1.23325 0.5 0.333252 1.4 0.333252 2.5V18.5C0.333252 19.6 1.23325 20.5 2.33325 20.5H14.3333C15.4333 20.5 16.3333 19.6 16.3333 18.5V6.5L10.3333 0.5ZM11.3333 9.5H7.33325V10.5H10.3333C10.8833 10.5 11.3333 10.95 11.3333 11.5V14.5C11.3333 15.05 10.8833 15.5 10.3333 15.5H9.33325V16.5H7.33325V15.5H5.33325V13.5H9.33325V12.5H6.33325C5.78325 12.5 5.33325 12.05 5.33325 11.5V8.5C5.33325 7.95 5.78325 7.5 6.33325 7.5H7.33325V6.5H9.33325V7.5H11.3333V9.5Z" fill="#333333"/>
</svg>
