<svg width="183" height="51" viewBox="0 0 183 51" fill="none" xmlns="http://www.w3.org/2000/svg">
<mask id="mask0_652_6213" style="mask-type:alpha" maskUnits="userSpaceOnUse" x="0" y="0" width="183" height="51">
<path d="M75.6932 15.9961C75.6932 19.7563 72.6539 22.357 68.8626 22.357H59.5566V0.422852H68.2045C71.9019 0.422852 74.8786 2.92964 74.8786 6.59572C74.8786 8.47581 74.0952 9.94853 72.8106 10.9825C74.5652 11.9853 75.6932 13.7087 75.6932 15.9961ZM63.8806 4.46501V9.29047H68.2045C69.5519 9.29047 70.5546 8.25648 70.5546 6.87778C70.5546 5.49908 69.5833 4.46502 68.2045 4.46502L63.8806 4.46501ZM71.4006 15.7141C71.4006 14.2413 70.3353 13.1446 68.8626 13.1446H63.8806V18.3148H68.8626C70.3353 18.3148 71.4006 17.2181 71.4006 15.7141Z" fill="#1A1A1E"/>
<path d="M77.8555 2.92964C77.8555 1.58222 78.9835 0.422852 80.3308 0.422852C81.7095 0.422852 82.8375 1.58222 82.8375 2.92964C82.8375 4.27697 81.7095 5.40506 80.3308 5.40506C79.6764 5.39833 79.0507 5.13537 78.5879 4.67258C78.1251 4.2098 77.8622 3.58407 77.8555 2.92964Z" fill="#1A1A1E"/>
<path d="M82.3672 6.6897H78.3252V22.357H82.3672V6.6897Z" fill="#1A1A1E"/>
<path d="M91.4848 10.5753V17.0929C91.4848 18.7849 92.7068 18.8163 95.0255 18.691V22.357C89.3541 22.9837 87.4428 21.3231 87.4428 17.0929V10.5753H84.7168V6.68978H87.4428V3.52501L91.4848 2.30298V6.68978H95.0255V10.5753H91.4848Z" fill="#1A1A1E"/>
<path d="M96.5928 14.5233C96.5928 9.85441 100.259 6.25098 104.865 6.25098C109.471 6.25098 113.168 9.85441 113.168 14.5233C113.168 19.1922 109.471 22.7956 104.865 22.7956C100.259 22.7956 96.5928 19.1922 96.5928 14.5233ZM109.126 14.5233C109.126 11.9852 107.277 10.1991 104.865 10.1991C102.483 10.1991 100.635 11.9852 100.635 14.5233C100.635 17.0613 102.483 18.8475 104.865 18.8475C107.277 18.8475 109.126 17.0613 109.126 14.5233Z" fill="#1A1A1E"/>
<path d="M125.764 22.357L120.062 15.2441V22.357H116.02V0.422852H120.062V13.5834L125.451 6.68974H130.276L123.978 14.4294L130.464 22.357L125.764 22.357Z" fill="#1A1A1E"/>
<path d="M132.156 20.1011C132.156 19.5743 132.312 19.0594 132.605 18.6214C132.898 18.1834 133.314 17.8421 133.8 17.6405C134.287 17.4389 134.823 17.3862 135.339 17.4889C135.856 17.5917 136.33 17.8453 136.703 18.2178C137.075 18.5903 137.329 19.0648 137.432 19.5815C137.535 20.0981 137.482 20.6336 137.28 21.1203C137.079 21.6069 136.737 22.0229 136.299 22.3155C135.861 22.6082 135.346 22.7644 134.82 22.7644C134.47 22.7647 134.123 22.696 133.8 22.5623C133.477 22.4285 133.183 22.2324 132.936 21.985C132.688 21.7376 132.492 21.4439 132.358 21.1207C132.225 20.7974 132.156 20.4509 132.156 20.1011Z" fill="#1A1A1E"/>
<path d="M163.332 12.7058V22.3569H159.29V12.9878C159.29 11.1391 158.35 10.0111 156.658 10.0111C154.872 10.0111 153.744 11.2018 153.744 13.5519V22.3569H149.702V12.9878C149.702 11.1391 148.762 10.0111 147.07 10.0111C145.347 10.0111 144.125 11.2018 144.125 13.5519V22.3569H140.083V6.68963H144.125V8.35039C145.002 7.03434 146.475 6.25098 148.48 6.25098C150.423 6.25098 151.864 7.06564 152.742 8.50707C153.713 7.097 155.28 6.25098 157.41 6.25098C160.982 6.25097 163.332 8.78905 163.332 12.7058Z" fill="#1A1A1E"/>
<path d="M174.613 19.1295C176.179 19.1295 177.433 18.4714 178.122 17.5627L181.381 19.4428C179.908 21.5735 177.558 22.7956 174.55 22.7956C169.286 22.7956 165.965 19.1922 165.965 14.5233C165.965 9.85441 169.317 6.25098 174.237 6.25098C178.874 6.25098 182.164 9.91706 182.164 14.5233C182.162 15.0805 182.109 15.6362 182.007 16.184H170.195C170.759 18.2522 172.482 19.1295 174.613 19.1295ZM178.122 13.0505C177.621 10.7944 175.929 9.88577 174.237 9.88577C172.075 9.88577 170.602 11.0451 170.132 13.0505H178.122Z" fill="#1A1A1E"/>
<path d="M182.164 28.6348H59.5566V50.5774H182.164V28.6348Z" fill="#FFD300"/>
<path d="M63.5986 39.6061C63.5986 37.0233 65.5169 35.0422 68.1623 35.0422C69.7546 35.0422 71.1588 35.8321 71.9236 37.0734L70.1934 38.0765C69.8047 37.3994 69.0524 36.9983 68.1623 36.9983C66.6076 36.9983 65.6046 38.0389 65.6046 39.6061C65.6046 41.1733 66.6076 42.2141 68.1623 42.2141C69.0524 42.2141 69.8173 41.8129 70.1934 41.1357L71.9236 42.1388C71.1713 43.3801 69.7672 44.17 68.1623 44.17C65.5169 44.17 63.5986 42.1891 63.5986 39.6061Z" fill="#1A1A1E"/>
<path d="M75.8231 41.1106H74.8702V43.9945H72.8643V35.2178H76.3748C76.7702 35.2169 77.1619 35.2941 77.5275 35.445C77.893 35.5959 78.225 35.8175 78.5046 36.0971C78.7842 36.3767 79.0058 36.7089 79.1567 37.0744C79.3076 37.4399 79.3848 37.8316 79.3838 38.2271C79.3838 39.3052 78.7317 40.2832 77.7664 40.7722L79.6346 43.9945H77.4781L75.8231 41.1106ZM74.8702 39.3554H76.3748C76.9264 39.3554 77.3777 38.8664 77.3777 38.2271C77.3777 37.5875 76.9264 37.0986 76.3748 37.0986H74.8702V39.3554Z" fill="#1A1A1E"/>
<path d="M84.5247 40.6218V43.9945H82.5186V40.6218L79.5723 35.2178H81.8541L83.5216 38.6032L85.1891 35.2178H87.471L84.5247 40.6218Z" fill="#1A1A1E"/>
<path d="M94.6178 38.227C94.6178 39.8946 93.2763 41.236 91.5461 41.236H90.2296V43.9945H88.2236V35.2178H91.5461C93.2763 35.2178 94.6178 36.5595 94.6178 38.227ZM92.6117 38.227C92.6117 37.5875 92.1604 37.0986 91.5461 37.0986H90.2296V39.3554H91.5461C92.1604 39.3554 92.6117 38.8664 92.6117 38.227Z" fill="#1A1A1E"/>
<path d="M101.388 37.1487H99.131V43.9945H97.125V37.1487H94.8682V35.2178H101.388V37.1487Z" fill="#1A1A1E"/>
<path d="M101.389 39.6061C101.389 37.0233 103.432 35.0422 105.952 35.0422C108.472 35.0422 110.516 37.0233 110.516 39.6061C110.516 42.1891 108.472 44.17 105.952 44.17C103.432 44.17 101.389 42.1891 101.389 39.6061ZM108.51 39.6061C108.51 38.0389 107.382 36.9983 105.952 36.9983C104.523 36.9983 103.395 38.0389 103.395 39.6061C103.395 41.1733 104.523 42.2141 105.952 42.2141C107.382 42.2141 108.51 41.1733 108.51 39.6061Z" fill="#1A1A1E"/>
<path d="M120.296 42.0637V43.9945H114.779V35.2178H120.233V37.1487H116.785V38.6032H119.92V40.5088H116.785V42.0637L120.296 42.0637Z" fill="#1A1A1E"/>
<path d="M126.039 43.9945L124.559 41.4618L123.08 43.9945H120.798L123.418 39.4933L120.923 35.2178H123.205L124.559 37.5374L125.913 35.2178H128.195L125.7 39.4933L128.32 43.9945L126.039 43.9945Z" fill="#1A1A1E"/>
<path d="M128.32 39.6061C128.32 37.0233 130.239 35.0422 132.884 35.0422C134.476 35.0422 135.881 35.8321 136.645 37.0734L134.915 38.0765C134.527 37.3994 133.774 36.9983 132.884 36.9983C131.329 36.9983 130.326 38.0389 130.326 39.6061C130.326 41.1733 131.329 42.2141 132.884 42.2141C133.774 42.2141 134.539 41.8129 134.915 41.1357L136.645 42.1388C135.893 43.3801 134.489 44.17 132.884 44.17C130.239 44.17 128.32 42.1891 128.32 39.6061Z" fill="#1A1A1E"/>
<path d="M144.356 35.2178V43.9945H142.35V40.5088H139.592V43.9945H137.586V35.2178H139.592V38.5781H142.35V35.2178H144.356Z" fill="#1A1A1E"/>
<path d="M151.001 42.6152H147.741L147.303 43.9945H145.108L148.092 35.2178H150.65L153.634 43.9945H151.44L151.001 42.6152ZM150.399 40.7346L149.371 37.5123L148.343 40.7346H150.399Z" fill="#1A1A1E"/>
<path d="M161.282 35.2178V43.9945H159.778L156.393 39.23V43.9945H154.387V35.2178H155.891L159.276 39.9823V35.2178H161.282Z" fill="#1A1A1E"/>
<path d="M171.476 39.8569C171.476 42.5401 169.608 44.17 167.15 44.17C164.392 44.17 162.411 42.1388 162.411 39.6187C162.411 37.0734 164.43 35.0422 167.012 35.0422C168.692 35.0422 170.109 35.8698 170.849 37.0483L169.144 38.0262C168.78 37.4496 167.99 36.9983 167 36.9983C165.52 36.9983 164.417 38.0889 164.417 39.6311C164.417 41.1233 165.47 42.2141 167.175 42.2141C168.341 42.2141 169.106 41.7 169.42 40.86H167.075V39.1046H171.476V39.8569Z" fill="#1A1A1E"/>
<path d="M178.121 42.0637V43.9945H172.604V35.2178H178.058V37.1487H174.611V38.6032H177.745V40.5088H174.611V42.0637L178.121 42.0637Z" fill="#1A1A1E"/>
<path d="M50.1527 0.422852H0V50.5773H50.1527V0.422852Z" fill="#FFD300"/>
<path d="M16.6659 32.6737V27.8914H33.576C33.89 27.8914 34.2009 27.9532 34.491 28.0734C34.7811 28.1936 35.0447 28.3697 35.2668 28.5917C35.4888 28.8138 35.6649 29.0774 35.7851 29.3675C35.9053 29.6576 35.9671 29.9685 35.9671 30.2825C35.9671 30.5965 35.9053 30.9075 35.7851 31.1976C35.6649 31.4877 35.4888 31.7513 35.2668 31.9733C35.0447 32.1954 34.7811 32.3715 34.491 32.4917C34.2009 32.6118 33.89 32.6737 33.576 32.6737H28.7938L26.2303 42.2383H31.0124L32.2942 37.456H33.7509C34.67 37.456 35.58 37.275 36.4291 36.9233C37.2782 36.5716 38.0498 36.0561 38.6996 35.4062C39.3495 34.7564 39.8649 33.9848 40.2166 33.1357C40.5683 32.2866 40.7492 31.3765 40.7492 30.4575V29.5827C40.7223 27.7363 40.047 26.5838 39.1571 25.66C39.116 25.6169 39.0932 25.5596 39.0934 25.5C39.0936 25.4404 39.1168 25.3833 39.1582 25.3405C40.047 24.4166 40.7223 23.2642 40.7492 21.4178V20.543C40.7491 18.6869 40.0118 16.9069 38.6994 15.5944C37.387 14.282 35.607 13.5446 33.7509 13.5445H32.2942L33.5761 8.76221H28.7939L26.2302 18.3268H33.576C34.2101 18.3268 34.8183 18.5787 35.2668 19.0271C35.7152 19.4756 35.9671 20.0838 35.9671 20.7179C35.9671 21.3521 35.7152 21.9603 35.2668 22.4087C34.8183 22.8572 34.2101 23.1091 33.576 23.1091H16.6659V18.3268H21.4481L24.0118 8.76221H19.2297L17.9478 13.5445H11.8838V37.456H17.9478L16.666 42.2383H21.4481L24.0118 32.6737H16.6659H16.6659Z" fill="#1A1A1E"/>
</mask>
<g mask="url(#mask0_652_6213)">
<path d="M75.6932 15.9961C75.6932 19.7563 72.6539 22.357 68.8626 22.357H59.5566V0.422852H68.2045C71.9019 0.422852 74.8786 2.92964 74.8786 6.59572C74.8786 8.47581 74.0952 9.94853 72.8106 10.9825C74.5652 11.9853 75.6932 13.7087 75.6932 15.9961ZM63.8806 4.46501V9.29047H68.2045C69.5519 9.29047 70.5546 8.25648 70.5546 6.87778C70.5546 5.49908 69.5833 4.46502 68.2045 4.46502L63.8806 4.46501ZM71.4006 15.7141C71.4006 14.2413 70.3353 13.1446 68.8626 13.1446H63.8806V18.3148H68.8626C70.3353 18.3148 71.4006 17.2181 71.4006 15.7141Z" fill="#1A1A1E"/>
<path d="M77.8555 2.92964C77.8555 1.58222 78.9835 0.422852 80.3308 0.422852C81.7095 0.422852 82.8375 1.58222 82.8375 2.92964C82.8375 4.27697 81.7095 5.40506 80.3308 5.40506C79.6764 5.39833 79.0507 5.13537 78.5879 4.67258C78.1251 4.2098 77.8622 3.58407 77.8555 2.92964Z" fill="#1A1A1E"/>
<path d="M82.3672 6.6897H78.3252V22.357H82.3672V6.6897Z" fill="#1A1A1E"/>
<path d="M91.4848 10.5753V17.0929C91.4848 18.7849 92.7068 18.8163 95.0255 18.691V22.357C89.3541 22.9837 87.4428 21.3231 87.4428 17.0929V10.5753H84.7168V6.68978H87.4428V3.52501L91.4848 2.30298V6.68978H95.0255V10.5753H91.4848Z" fill="#1A1A1E"/>
<path d="M96.5928 14.5233C96.5928 9.85441 100.259 6.25098 104.865 6.25098C109.471 6.25098 113.168 9.85441 113.168 14.5233C113.168 19.1922 109.471 22.7956 104.865 22.7956C100.259 22.7956 96.5928 19.1922 96.5928 14.5233ZM109.126 14.5233C109.126 11.9852 107.277 10.1991 104.865 10.1991C102.483 10.1991 100.635 11.9852 100.635 14.5233C100.635 17.0613 102.483 18.8475 104.865 18.8475C107.277 18.8475 109.126 17.0613 109.126 14.5233Z" fill="#1A1A1E"/>
<path d="M125.764 22.357L120.062 15.2441V22.357H116.02V0.422852H120.062V13.5834L125.451 6.68974H130.276L123.978 14.4294L130.464 22.357L125.764 22.357Z" fill="#1A1A1E"/>
<path d="M132.156 20.1011C132.156 19.5743 132.312 19.0594 132.605 18.6214C132.898 18.1834 133.314 17.8421 133.8 17.6405C134.287 17.4389 134.823 17.3862 135.339 17.4889C135.856 17.5917 136.33 17.8453 136.703 18.2178C137.075 18.5903 137.329 19.0648 137.432 19.5815C137.535 20.0981 137.482 20.6336 137.28 21.1203C137.079 21.6069 136.737 22.0229 136.299 22.3155C135.861 22.6082 135.346 22.7644 134.82 22.7644C134.47 22.7647 134.123 22.696 133.8 22.5623C133.477 22.4285 133.183 22.2324 132.936 21.985C132.688 21.7376 132.492 21.4439 132.358 21.1207C132.225 20.7974 132.156 20.4509 132.156 20.1011Z" fill="#1A1A1E"/>
<path d="M163.332 12.7058V22.3569H159.29V12.9878C159.29 11.1391 158.35 10.0111 156.658 10.0111C154.872 10.0111 153.744 11.2018 153.744 13.5519V22.3569H149.702V12.9878C149.702 11.1391 148.762 10.0111 147.07 10.0111C145.347 10.0111 144.125 11.2018 144.125 13.5519V22.3569H140.083V6.68963H144.125V8.35039C145.002 7.03434 146.475 6.25098 148.48 6.25098C150.423 6.25098 151.864 7.06564 152.742 8.50707C153.713 7.097 155.28 6.25098 157.41 6.25098C160.982 6.25097 163.332 8.78905 163.332 12.7058Z" fill="#1A1A1E"/>
<path d="M174.613 19.1295C176.179 19.1295 177.433 18.4714 178.122 17.5627L181.381 19.4428C179.908 21.5735 177.558 22.7956 174.55 22.7956C169.286 22.7956 165.965 19.1922 165.965 14.5233C165.965 9.85441 169.317 6.25098 174.237 6.25098C178.874 6.25098 182.164 9.91706 182.164 14.5233C182.162 15.0805 182.109 15.6362 182.007 16.184H170.195C170.759 18.2522 172.482 19.1295 174.613 19.1295ZM178.122 13.0505C177.621 10.7944 175.929 9.88577 174.237 9.88577C172.075 9.88577 170.602 11.0451 170.132 13.0505H178.122Z" fill="#1A1A1E"/>
<path d="M182.164 28.6348H59.5566V50.5774H182.164V28.6348Z" fill="#FFD300"/>
<path d="M63.5986 39.6061C63.5986 37.0233 65.5169 35.0422 68.1623 35.0422C69.7546 35.0422 71.1588 35.8321 71.9236 37.0734L70.1934 38.0765C69.8047 37.3994 69.0524 36.9983 68.1623 36.9983C66.6076 36.9983 65.6046 38.0389 65.6046 39.6061C65.6046 41.1733 66.6076 42.2141 68.1623 42.2141C69.0524 42.2141 69.8173 41.8129 70.1934 41.1357L71.9236 42.1388C71.1713 43.3801 69.7672 44.17 68.1623 44.17C65.5169 44.17 63.5986 42.1891 63.5986 39.6061Z" fill="#1A1A1E"/>
<path d="M75.8231 41.1106H74.8702V43.9945H72.8643V35.2178H76.3748C76.7702 35.2169 77.1619 35.2941 77.5275 35.445C77.893 35.5959 78.225 35.8175 78.5046 36.0971C78.7842 36.3767 79.0058 36.7089 79.1567 37.0744C79.3076 37.4399 79.3848 37.8316 79.3838 38.2271C79.3838 39.3052 78.7317 40.2832 77.7664 40.7722L79.6346 43.9945H77.4781L75.8231 41.1106ZM74.8702 39.3554H76.3748C76.9264 39.3554 77.3777 38.8664 77.3777 38.2271C77.3777 37.5875 76.9264 37.0986 76.3748 37.0986H74.8702V39.3554Z" fill="#1A1A1E"/>
<path d="M84.5247 40.6218V43.9945H82.5186V40.6218L79.5723 35.2178H81.8541L83.5216 38.6032L85.1891 35.2178H87.471L84.5247 40.6218Z" fill="#1A1A1E"/>
<path d="M94.6178 38.227C94.6178 39.8946 93.2763 41.236 91.5461 41.236H90.2296V43.9945H88.2236V35.2178H91.5461C93.2763 35.2178 94.6178 36.5595 94.6178 38.227ZM92.6117 38.227C92.6117 37.5875 92.1604 37.0986 91.5461 37.0986H90.2296V39.3554H91.5461C92.1604 39.3554 92.6117 38.8664 92.6117 38.227Z" fill="#1A1A1E"/>
<path d="M101.388 37.1487H99.131V43.9945H97.125V37.1487H94.8682V35.2178H101.388V37.1487Z" fill="#1A1A1E"/>
<path d="M101.389 39.6061C101.389 37.0233 103.432 35.0422 105.952 35.0422C108.472 35.0422 110.516 37.0233 110.516 39.6061C110.516 42.1891 108.472 44.17 105.952 44.17C103.432 44.17 101.389 42.1891 101.389 39.6061ZM108.51 39.6061C108.51 38.0389 107.382 36.9983 105.952 36.9983C104.523 36.9983 103.395 38.0389 103.395 39.6061C103.395 41.1733 104.523 42.2141 105.952 42.2141C107.382 42.2141 108.51 41.1733 108.51 39.6061Z" fill="#1A1A1E"/>
<path d="M120.296 42.0637V43.9945H114.779V35.2178H120.233V37.1487H116.785V38.6032H119.92V40.5088H116.785V42.0637L120.296 42.0637Z" fill="#1A1A1E"/>
<path d="M126.039 43.9945L124.559 41.4618L123.08 43.9945H120.798L123.418 39.4933L120.923 35.2178H123.205L124.559 37.5374L125.913 35.2178H128.195L125.7 39.4933L128.32 43.9945L126.039 43.9945Z" fill="#1A1A1E"/>
<path d="M128.32 39.6061C128.32 37.0233 130.239 35.0422 132.884 35.0422C134.476 35.0422 135.881 35.8321 136.645 37.0734L134.915 38.0765C134.527 37.3994 133.774 36.9983 132.884 36.9983C131.329 36.9983 130.326 38.0389 130.326 39.6061C130.326 41.1733 131.329 42.2141 132.884 42.2141C133.774 42.2141 134.539 41.8129 134.915 41.1357L136.645 42.1388C135.893 43.3801 134.489 44.17 132.884 44.17C130.239 44.17 128.32 42.1891 128.32 39.6061Z" fill="#1A1A1E"/>
<path d="M144.356 35.2178V43.9945H142.35V40.5088H139.592V43.9945H137.586V35.2178H139.592V38.5781H142.35V35.2178H144.356Z" fill="#1A1A1E"/>
<path d="M151.001 42.6152H147.741L147.303 43.9945H145.108L148.092 35.2178H150.65L153.634 43.9945H151.44L151.001 42.6152ZM150.399 40.7346L149.371 37.5123L148.343 40.7346H150.399Z" fill="#1A1A1E"/>
<path d="M161.282 35.2178V43.9945H159.778L156.393 39.23V43.9945H154.387V35.2178H155.891L159.276 39.9823V35.2178H161.282Z" fill="#1A1A1E"/>
<path d="M171.476 39.8569C171.476 42.5401 169.608 44.17 167.15 44.17C164.392 44.17 162.411 42.1388 162.411 39.6187C162.411 37.0734 164.43 35.0422 167.012 35.0422C168.692 35.0422 170.109 35.8698 170.849 37.0483L169.144 38.0262C168.78 37.4496 167.99 36.9983 167 36.9983C165.52 36.9983 164.417 38.0889 164.417 39.6311C164.417 41.1233 165.47 42.2141 167.175 42.2141C168.341 42.2141 169.106 41.7 169.42 40.86H167.075V39.1046H171.476V39.8569Z" fill="#1A1A1E"/>
<path d="M178.121 42.0637V43.9945H172.604V35.2178H178.058V37.1487H174.611V38.6032H177.745V40.5088H174.611V42.0637L178.121 42.0637Z" fill="#1A1A1E"/>
<path d="M50.1527 0.422852H0V50.5773H50.1527V0.422852Z" fill="#FFD300"/>
<path d="M16.6659 32.6737V27.8914H33.576C33.89 27.8914 34.2009 27.9532 34.491 28.0734C34.7811 28.1936 35.0447 28.3697 35.2668 28.5917C35.4888 28.8138 35.6649 29.0774 35.7851 29.3675C35.9053 29.6576 35.9671 29.9685 35.9671 30.2825C35.9671 30.5965 35.9053 30.9075 35.7851 31.1976C35.6649 31.4877 35.4888 31.7513 35.2668 31.9733C35.0447 32.1954 34.7811 32.3715 34.491 32.4917C34.2009 32.6118 33.89 32.6737 33.576 32.6737H28.7938L26.2303 42.2383H31.0124L32.2942 37.456H33.7509C34.67 37.456 35.58 37.275 36.4291 36.9233C37.2782 36.5716 38.0498 36.0561 38.6996 35.4062C39.3495 34.7564 39.8649 33.9848 40.2166 33.1357C40.5683 32.2866 40.7492 31.3765 40.7492 30.4575V29.5827C40.7223 27.7363 40.047 26.5838 39.1571 25.66C39.116 25.6169 39.0932 25.5596 39.0934 25.5C39.0936 25.4404 39.1168 25.3833 39.1582 25.3405C40.047 24.4166 40.7223 23.2642 40.7492 21.4178V20.543C40.7491 18.6869 40.0118 16.9069 38.6994 15.5944C37.387 14.282 35.607 13.5446 33.7509 13.5445H32.2942L33.5761 8.76221H28.7939L26.2302 18.3268H33.576C34.2101 18.3268 34.8183 18.5787 35.2668 19.0271C35.7152 19.4756 35.9671 20.0838 35.9671 20.7179C35.9671 21.3521 35.7152 21.9603 35.2668 22.4087C34.8183 22.8572 34.2101 23.1091 33.576 23.1091H16.6659V18.3268H21.4481L24.0118 8.76221H19.2297L17.9478 13.5445H11.8838V37.456H17.9478L16.666 42.2383H21.4481L24.0118 32.6737H16.6659H16.6659Z" fill="#1A1A1E"/>
<path d="M75.6932 15.9961C75.6932 19.7563 72.6539 22.357 68.8626 22.357H59.5566V0.422852H68.2045C71.9019 0.422852 74.8786 2.92964 74.8786 6.59572C74.8786 8.47581 74.0952 9.94853 72.8106 10.9825C74.5652 11.9853 75.6932 13.7087 75.6932 15.9961ZM63.8806 4.46501V9.29047H68.2045C69.5519 9.29047 70.5546 8.25648 70.5546 6.87778C70.5546 5.49908 69.5833 4.46502 68.2045 4.46502L63.8806 4.46501ZM71.4006 15.7141C71.4006 14.2413 70.3353 13.1446 68.8626 13.1446H63.8806V18.3148H68.8626C70.3353 18.3148 71.4006 17.2181 71.4006 15.7141Z" fill="#979797"/>
<path d="M77.8555 2.92964C77.8555 1.58222 78.9835 0.422852 80.3308 0.422852C81.7095 0.422852 82.8375 1.58222 82.8375 2.92964C82.8375 4.27697 81.7095 5.40506 80.3308 5.40506C79.6764 5.39833 79.0507 5.13537 78.5879 4.67258C78.1251 4.2098 77.8622 3.58407 77.8555 2.92964Z" fill="#979797"/>
<path d="M82.3672 6.6897H78.3252V22.357H82.3672V6.6897Z" fill="#979797"/>
<path d="M91.4848 10.5753V17.0929C91.4848 18.7849 92.7068 18.8163 95.0255 18.691V22.357C89.3541 22.9837 87.4428 21.3231 87.4428 17.0929V10.5753H84.7168V6.68978H87.4428V3.52501L91.4848 2.30298V6.68978H95.0255V10.5753H91.4848Z" fill="#979797"/>
<path d="M96.5928 14.5233C96.5928 9.85441 100.259 6.25098 104.865 6.25098C109.471 6.25098 113.168 9.85441 113.168 14.5233C113.168 19.1922 109.471 22.7956 104.865 22.7956C100.259 22.7956 96.5928 19.1922 96.5928 14.5233ZM109.126 14.5233C109.126 11.9852 107.277 10.1991 104.865 10.1991C102.483 10.1991 100.635 11.9852 100.635 14.5233C100.635 17.0613 102.483 18.8475 104.865 18.8475C107.277 18.8475 109.126 17.0613 109.126 14.5233Z" fill="#979797"/>
<path d="M125.764 22.357L120.062 15.2441V22.357H116.02V0.422852H120.062V13.5834L125.451 6.68974H130.276L123.978 14.4294L130.464 22.357L125.764 22.357Z" fill="#979797"/>
<path d="M132.156 20.1011C132.156 19.5743 132.312 19.0594 132.605 18.6214C132.898 18.1834 133.314 17.8421 133.8 17.6405C134.287 17.4389 134.823 17.3862 135.339 17.4889C135.856 17.5917 136.33 17.8453 136.703 18.2178C137.075 18.5903 137.329 19.0648 137.432 19.5815C137.535 20.0981 137.482 20.6336 137.28 21.1203C137.079 21.6069 136.737 22.0229 136.299 22.3155C135.861 22.6082 135.346 22.7644 134.82 22.7644C134.47 22.7647 134.123 22.696 133.8 22.5623C133.477 22.4285 133.183 22.2324 132.936 21.985C132.688 21.7376 132.492 21.4439 132.358 21.1207C132.225 20.7974 132.156 20.4509 132.156 20.1011Z" fill="#979797"/>
<path d="M163.332 12.7058V22.3569H159.29V12.9878C159.29 11.1391 158.35 10.0111 156.658 10.0111C154.872 10.0111 153.744 11.2018 153.744 13.5519V22.3569H149.702V12.9878C149.702 11.1391 148.762 10.0111 147.07 10.0111C145.347 10.0111 144.125 11.2018 144.125 13.5519V22.3569H140.083V6.68963H144.125V8.35039C145.002 7.03434 146.475 6.25098 148.48 6.25098C150.423 6.25098 151.864 7.06564 152.742 8.50707C153.713 7.097 155.28 6.25098 157.41 6.25098C160.982 6.25097 163.332 8.78905 163.332 12.7058Z" fill="#979797"/>
<path d="M174.613 19.1295C176.179 19.1295 177.433 18.4714 178.122 17.5627L181.381 19.4428C179.908 21.5735 177.558 22.7956 174.55 22.7956C169.286 22.7956 165.965 19.1922 165.965 14.5233C165.965 9.85441 169.317 6.25098 174.237 6.25098C178.874 6.25098 182.164 9.91706 182.164 14.5233C182.162 15.0805 182.109 15.6362 182.007 16.184H170.195C170.759 18.2522 172.482 19.1295 174.613 19.1295ZM178.122 13.0505C177.621 10.7944 175.929 9.88577 174.237 9.88577C172.075 9.88577 170.602 11.0451 170.132 13.0505H178.122Z" fill="#979797"/>
<path d="M182.164 28.6348H59.5566V50.5774H182.164V28.6348Z" fill="#979797"/>
<path d="M63.5986 39.6061C63.5986 37.0233 65.5169 35.0422 68.1623 35.0422C69.7546 35.0422 71.1588 35.8321 71.9236 37.0734L70.1934 38.0765C69.8047 37.3994 69.0524 36.9983 68.1623 36.9983C66.6076 36.9983 65.6046 38.0389 65.6046 39.6061C65.6046 41.1733 66.6076 42.2141 68.1623 42.2141C69.0524 42.2141 69.8173 41.8129 70.1934 41.1357L71.9236 42.1388C71.1713 43.3801 69.7672 44.17 68.1623 44.17C65.5169 44.17 63.5986 42.1891 63.5986 39.6061Z" fill="white"/>
<path d="M75.8231 41.1106H74.8702V43.9945H72.8643V35.2178H76.3748C76.7702 35.2169 77.1619 35.2941 77.5275 35.445C77.893 35.5959 78.225 35.8175 78.5046 36.0971C78.7842 36.3767 79.0058 36.7089 79.1567 37.0744C79.3076 37.4399 79.3848 37.8316 79.3838 38.2271C79.3838 39.3052 78.7317 40.2832 77.7664 40.7722L79.6346 43.9945H77.4781L75.8231 41.1106ZM74.8702 39.3554H76.3748C76.9264 39.3554 77.3777 38.8664 77.3777 38.2271C77.3777 37.5875 76.9264 37.0986 76.3748 37.0986H74.8702V39.3554Z" fill="white"/>
<path d="M84.5247 40.6218V43.9945H82.5186V40.6218L79.5723 35.2178H81.8541L83.5216 38.6032L85.1891 35.2178H87.471L84.5247 40.6218Z" fill="white"/>
<path d="M94.6178 38.227C94.6178 39.8946 93.2763 41.236 91.5461 41.236H90.2296V43.9945H88.2236V35.2178H91.5461C93.2763 35.2178 94.6178 36.5595 94.6178 38.227ZM92.6117 38.227C92.6117 37.5875 92.1604 37.0986 91.5461 37.0986H90.2296V39.3554H91.5461C92.1604 39.3554 92.6117 38.8664 92.6117 38.227Z" fill="white"/>
<path d="M101.388 37.1487H99.131V43.9945H97.125V37.1487H94.8682V35.2178H101.388V37.1487Z" fill="white"/>
<path d="M101.389 39.6061C101.389 37.0233 103.432 35.0422 105.952 35.0422C108.472 35.0422 110.516 37.0233 110.516 39.6061C110.516 42.1891 108.472 44.17 105.952 44.17C103.432 44.17 101.389 42.1891 101.389 39.6061ZM108.51 39.6061C108.51 38.0389 107.382 36.9983 105.952 36.9983C104.523 36.9983 103.395 38.0389 103.395 39.6061C103.395 41.1733 104.523 42.2141 105.952 42.2141C107.382 42.2141 108.51 41.1733 108.51 39.6061Z" fill="white"/>
<path d="M120.296 42.0637V43.9945H114.779V35.2178H120.233V37.1487H116.785V38.6032H119.92V40.5088H116.785V42.0637L120.296 42.0637Z" fill="white"/>
<path d="M126.039 43.9945L124.559 41.4618L123.08 43.9945H120.798L123.418 39.4933L120.923 35.2178H123.205L124.559 37.5374L125.913 35.2178H128.195L125.7 39.4933L128.32 43.9945L126.039 43.9945Z" fill="white"/>
<path d="M128.32 39.6061C128.32 37.0233 130.239 35.0422 132.884 35.0422C134.476 35.0422 135.881 35.8321 136.645 37.0734L134.915 38.0765C134.527 37.3994 133.774 36.9983 132.884 36.9983C131.329 36.9983 130.326 38.0389 130.326 39.6061C130.326 41.1733 131.329 42.2141 132.884 42.2141C133.774 42.2141 134.539 41.8129 134.915 41.1357L136.645 42.1388C135.893 43.3801 134.489 44.17 132.884 44.17C130.239 44.17 128.32 42.1891 128.32 39.6061Z" fill="white"/>
<path d="M144.356 35.2178V43.9945H142.35V40.5088H139.592V43.9945H137.586V35.2178H139.592V38.5781H142.35V35.2178H144.356Z" fill="white"/>
<path d="M151.001 42.6152H147.741L147.303 43.9945H145.108L148.092 35.2178H150.65L153.634 43.9945H151.44L151.001 42.6152ZM150.399 40.7346L149.371 37.5123L148.343 40.7346H150.399Z" fill="white"/>
<path d="M161.282 35.2178V43.9945H159.778L156.393 39.23V43.9945H154.387V35.2178H155.891L159.276 39.9823V35.2178H161.282Z" fill="white"/>
<path d="M171.476 39.8569C171.476 42.5401 169.608 44.17 167.15 44.17C164.392 44.17 162.411 42.1388 162.411 39.6187C162.411 37.0734 164.43 35.0422 167.012 35.0422C168.692 35.0422 170.109 35.8698 170.849 37.0483L169.144 38.0262C168.78 37.4496 167.99 36.9983 167 36.9983C165.52 36.9983 164.417 38.0889 164.417 39.6311C164.417 41.1233 165.47 42.2141 167.175 42.2141C168.341 42.2141 169.106 41.7 169.42 40.86H167.075V39.1046H171.476V39.8569Z" fill="white"/>
<path d="M178.121 42.0637V43.9945H172.604V35.2178H178.058V37.1487H174.611V38.6032H177.745V40.5088H174.611V42.0637L178.121 42.0637Z" fill="white"/>
<path d="M50.1527 0.422852H0V50.5773H50.1527V0.422852Z" fill="#979797"/>
<path d="M16.6659 32.6737V27.8914H33.576C33.89 27.8914 34.2009 27.9532 34.491 28.0734C34.7811 28.1936 35.0447 28.3697 35.2668 28.5917C35.4888 28.8138 35.6649 29.0774 35.7851 29.3675C35.9053 29.6576 35.9671 29.9685 35.9671 30.2825C35.9671 30.5965 35.9053 30.9075 35.7851 31.1976C35.6649 31.4877 35.4888 31.7513 35.2668 31.9733C35.0447 32.1954 34.7811 32.3715 34.491 32.4917C34.2009 32.6118 33.89 32.6737 33.576 32.6737H28.7938L26.2303 42.2383H31.0124L32.2942 37.456H33.7509C34.67 37.456 35.58 37.275 36.4291 36.9233C37.2782 36.5716 38.0498 36.0561 38.6996 35.4062C39.3495 34.7564 39.8649 33.9848 40.2166 33.1357C40.5683 32.2866 40.7492 31.3765 40.7492 30.4575V29.5827C40.7223 27.7363 40.047 26.5838 39.1571 25.66C39.116 25.6169 39.0932 25.5596 39.0934 25.5C39.0936 25.4404 39.1168 25.3833 39.1582 25.3405C40.047 24.4166 40.7223 23.2642 40.7492 21.4178V20.543C40.7491 18.6869 40.0118 16.9069 38.6994 15.5944C37.387 14.282 35.607 13.5446 33.7509 13.5445H32.2942L33.5761 8.76221H28.7939L26.2302 18.3268H33.576C34.2101 18.3268 34.8183 18.5787 35.2668 19.0271C35.7152 19.4756 35.9671 20.0838 35.9671 20.7179C35.9671 21.3521 35.7152 21.9603 35.2668 22.4087C34.8183 22.8572 34.2101 23.1091 33.576 23.1091H16.6659V18.3268H21.4481L24.0118 8.76221H19.2297L17.9478 13.5445H11.8838V37.456H17.9478L16.666 42.2383H21.4481L24.0118 32.6737H16.6659H16.6659Z" fill="white"/>
</g>
</svg>
