<svg id="Logo" xmlns="http://www.w3.org/2000/svg" viewBox="0 0 2000 2000"><defs><style>.cls-1{fill:#ffd300;}.cls-2{fill:#fff;}.cls-3{fill:#1c1c1b;}.cls-4{fill:#1a1a1e;}</style></defs><circle class="cls-1" cx="1000" cy="1000" r="750"/><path class="cls-2" d="M1212.79373,1238.87482l-171.41247-36.46866a608.0153,608.0153,0,0,1,90.1125,126.05621c49.59389,92.5502,74.28749,196.10642,73.44383,307.76276l-.01877,1.06865-2.8125,85.16258c-1.76262.48752-3.50647.97481-5.26886,1.44356-.9938.28129-1.98761.54382-2.98118.80635-1.57494.41244-3.1501.84366-4.725,1.23733-.95627.26276-1.91254.50629-2.88734.75028-2.60651.656-5.19379,1.31241-7.81906,1.94984-2.66236.65621-5.36225,1.29387-8.0436,1.91254-.61867.14992-1.25633.30006-1.89377.45q-8.60607,1.969-17.325,3.75c-3.05626.63744-6.11252,1.23756-9.18754,1.8187-2.85.56259-5.71885,1.08741-8.58742,1.5937-.50629.09384-1.01258.18768-1.51863.26253-2.7752.50628-5.56893.9938-8.36266,1.44378-2.49367.41268-4.98756.82512-7.48123,1.2a756.93857,756.93857,0,0,1-289.01253-11.13739c-3.11245-.7315-6.225-1.50009-9.33746-2.2689-.58125-.14992-1.18126-.30007-1.76251-.43122q-4.78128-1.20953-9.5438-2.4749-5.11876-1.3781-10.23742-2.8125-5.09063-1.43441-10.16259-2.94387-5.00616-1.49071-9.99366-3.0375-.45011-.14041-.90008-.28129c-2.79373-.8812-5.58746-1.78116-8.36243-2.68112-2.77508-.91874-5.55-1.83747-8.325-2.79374-1.76251-.58135-3.525-1.18148-5.26875-1.81869-2.34375-.80635-4.66873-1.63147-6.99383-2.45636-.075-.03754-.16868-.0563-.24375-.09384-162.975-58.66882-299.7749-172.19994-388.125-318.3q-6.86235-11.33445-13.33123-22.95c-.78747-1.425-1.5937-2.85-2.36252-4.29382-1.16249-2.081-2.28744-4.18122-3.4124-6.29975-1.1626-2.15652-2.32509-4.31259-3.45005-6.48765-1.23745-2.36252-2.45624-4.72481-3.675-7.1061-1.05-2.06268-2.1-4.12514-3.13121-6.20636-.18746-.39368-.3938-.76881-.58125-1.16249-.9375-1.89377-1.85623-3.76877-2.775-5.66254-.65632-1.33117-1.29376-2.66258-1.93131-3.99375-1.18126-2.49367-2.36252-4.98734-3.54378-7.5-.69374-1.51886-1.40625-3.0375-2.1-4.5749-.73116-1.57516-1.44367-3.1501-2.13741-4.7438-1.01257-2.23114-2.00626-4.46251-2.9813-6.71265-.86254-1.96861-1.7062-3.93722-2.55-5.92483-.58125-1.33118-1.14373-2.68135-1.70632-4.01253-.45-1.06865-.9-2.15629-1.34994-3.24371-.9375-2.28768-1.875-4.55635-2.79373-6.86257-.86254-2.11876-1.70632-4.25628-2.53132-6.39358-.6-1.48133-1.18126-2.98142-1.74374-4.48151-.88119-2.26867-1.725-4.53735-2.58751-6.806v-.03754c-1.01246-2.68135-1.98749-5.3627-2.96242-8.06259-.09384-.24376-.1688-.48751-.26252-.73127v-.01877A748.50964,748.50964,0,0,1,250,1000c0-321.76872,202.65-596.21258,487.25624-702.675q5.17507-1.94062,10.36881-3.78753c1.725-.61867,3.4687-1.23745,5.21244-1.83747.41256-.15.825-.30006,1.25621-.45,1.78128-.61878,3.56255-1.23756,5.36259-1.83758,2.24991-.7687,4.49993-1.51874,6.76872-2.24991,2.66247-.88131,5.36248-1.74373,8.04371-2.58751,1.63124-.50628,3.24383-1.01257,4.87507-1.51874,1.76251-.54382,3.54366-1.08753,5.30617-1.61259,1.53751-.46875,3.09379-.91873,4.63131-1.36871.46875-.15.91873-.28118,1.38748-.41245,3.24371-.9375,6.5062-1.875,9.75-2.75631.13127-.03753.26253-.075.375-.11249,1.68743-.46875,3.3562-.91873,5.025-1.36871,5.475-1.46256,10.96871-2.85,16.48121-4.2L984.3438,545.46242c5.85,1.05011,11.66244,2.23125,17.45624,3.60008l119.51237,28.125,77.36252,154.70627L1391.38748,929.425Z"/><path class="cls-3" d="M1000,250c-3.525,0-7.05.01877-10.575.075l50.56881,85.46253A663.50741,663.50741,0,1,1,867.25,347.55619L822.1,271.225C493.76877,351.1,250,647.08744,250,1000c0,414.20609,335.7938,750,750,750,414.20609,0,750-335.79391,750-750C1750,585.79369,1414.20609,250,1000,250Z"/><polygon class="cls-4" points="1129.089 781.432 943.394 740.599 1081.45 886.432 1081.45 812.708 1129.089 781.432"/><path class="cls-4" d="M1170.38124,1143.58742l115.98747-200.98114L1129.0937,781.3937,1063.525,650.2562,982.4688,631.18748c-50.66254-11.90621-103.95-7.275-150.03754,13.06869-54.09371,23.8876-93.26248,66.18759-110.28751,119.1a192.33295,192.33295,0,0,0,57.31876,205.68752l212.60628,185.51239c57.65625,50.32517,104.56878,108.82508,139.425,173.90625,49.59389,92.5502,74.28749,196.10642,73.44383,307.76276l-.01877,1.06865-2.8125,85.16258A742.95366,742.95366,0,0,1,1116.025,1741.075l4.55635-106.03134c.656-97.18117-20.70007-186.91864-63.45016-266.73752-30.03743-56.06232-70.59369-106.57493-120.54371-150.16868L723.98121,1032.60628a274.52291,274.52291,0,0,1-90.31872-156.01879c-4.8,38.53122-3.16875,76.06876,5.175,104.25a296.15636,296.15636,0,0,0,40.8,84.35635L797.70622,1236.025c47.0438,69.05617,75.20623,135.30006,86.10008,202.53731,11.9624,73.78143,2.06246,148.05015-29.43752,220.78125l-27.3563,70.594a740.62375,740.62375,0,0,1-81.13128-24.09393L776.65,1626.475c49.18121-112.95,33.75-221.88744-48.6-342.8437L610.225,1113.175a380.23788,380.23788,0,0,1-52.29378-108.41251c-15.88119-53.625-14.96246-126.075,2.43759-193.8,4.94992-19.29371,13.125-45.18757,25.81868-70.8-95.23121,91.875-158.56877,238.05-195.91873,445.03132L357.7562,1387.54364a746.23536,746.23536,0,0,1-63.89992-134.25L307.15,1170.60623c39.5438-219.3,108.61874-376.83746,211.16249-481.57505a489.44393,489.44393,0,0,1,176.25-115.74371C750.11871,552.08122,812.63126,539.575,880.73128,536.05l-143.475-238.725A742.01615,742.01615,0,0,1,822.1,271.225L984.3438,545.46242c5.85,1.05011,11.66244,2.23125,17.45624,3.60008l119.51237,28.125,77.36252,154.70627L1391.38748,929.425l-178.59375,309.44985-98.53134-20.96237,17.569-82.53754Z"/></svg>