<svg width="218" height="60" viewBox="0 0 218 60" fill="none" xmlns="http://www.w3.org/2000/svg">
<path d="M90.5513 18.6303C90.5513 23.1286 86.9154 26.2399 82.3798 26.2399H71.2471V0H81.5926C86.0158 0 89.5768 2.99888 89.5768 7.38463C89.5768 9.63379 88.6396 11.3956 87.1028 12.6326C89.2019 13.8322 90.5513 15.8939 90.5513 18.6303ZM76.4199 4.83565V10.6084H81.5926C83.2045 10.6084 84.4039 9.3714 84.4039 7.72206C84.4039 6.07272 83.242 4.83566 81.5926 4.83566L76.4199 4.83565ZM85.416 18.293C85.416 16.5311 84.1416 15.2191 82.3798 15.2191H76.4199V21.4043H82.3798C84.1416 21.4043 85.416 20.0922 85.416 18.293Z" fill="#1A1A1E"/>
<path d="M93.1387 2.99888C93.1387 1.38696 94.4882 0 96.0999 0C97.7492 0 99.0987 1.38696 99.0987 2.99888C99.0987 4.6107 97.7492 5.96023 96.0999 5.96023C95.317 5.95219 94.5685 5.6376 94.0149 5.08397C93.4613 4.53034 93.1467 3.78177 93.1387 2.99888Z" fill="#1A1A1E"/>
<path d="M98.5357 7.49707H93.7002V26.2399H98.5357V7.49707Z" fill="#1A1A1E"/>
<path d="M109.444 12.1454V19.9424C109.444 21.9667 110.906 22.0042 113.68 21.8543V26.24C106.895 26.9897 104.609 25.0031 104.609 19.9424V12.1454H101.348V7.49721H104.609V3.71119L109.444 2.24927V7.49721H113.68V12.1454H109.444Z" fill="#1A1A1E"/>
<path d="M115.554 16.8687C115.554 11.2832 119.939 6.97241 125.449 6.97241C130.96 6.97241 135.383 11.2832 135.383 16.8687C135.383 22.454 130.96 26.7647 125.449 26.7647C119.939 26.7648 115.554 22.454 115.554 16.8687ZM130.547 16.8687C130.547 13.8323 128.336 11.6956 125.449 11.6956C122.601 11.6956 120.389 13.8323 120.389 16.8687C120.389 19.9049 122.601 22.0417 125.449 22.0417C128.336 22.0417 130.547 19.9049 130.547 16.8687Z" fill="#1A1A1E"/>
<path d="M150.452 26.2399L143.629 17.7307V26.2399H138.794V0H143.629V15.744L150.077 7.4971H155.849L148.315 16.756L156.074 26.2399L150.452 26.2399Z" fill="#1A1A1E"/>
<path d="M158.099 23.5412C158.099 22.911 158.285 22.295 158.636 21.771C158.986 21.2471 159.483 20.8387 160.065 20.5975C160.648 20.3564 161.288 20.2933 161.906 20.4162C162.524 20.5391 163.092 20.8426 163.538 21.2882C163.983 21.7337 164.287 22.3015 164.41 22.9195C164.533 23.5376 164.47 24.1782 164.228 24.7604C163.987 25.3426 163.579 25.8402 163.055 26.1903C162.531 26.5404 161.915 26.7273 161.285 26.7273C160.866 26.7276 160.452 26.6455 160.065 26.4855C159.678 26.3255 159.327 26.0908 159.031 25.7949C158.735 25.499 158.5 25.1476 158.34 24.7609C158.18 24.3741 158.098 23.9597 158.099 23.5412Z" fill="#1A1A1E"/>
<path d="M195.395 14.6944V26.24H190.56V15.0317C190.56 12.8201 189.435 11.4706 187.411 11.4706C185.274 11.4706 183.925 12.8951 183.925 15.7066V26.24H179.09V15.0317C179.09 12.8201 177.965 11.4706 175.941 11.4706C173.879 11.4706 172.418 12.8951 172.418 15.7066V26.24H167.582V7.49718H172.418V9.48395C173.467 7.90956 175.229 6.97241 177.628 6.97241C179.952 6.97241 181.676 7.94699 182.726 9.67138C183.888 7.98451 185.762 6.97241 188.311 6.97241C192.584 6.97241 195.395 10.0087 195.395 14.6944Z" fill="#1A1A1E"/>
<path d="M208.889 22.379C210.764 22.379 212.263 21.5918 213.088 20.5047L216.986 22.7539C215.224 25.3028 212.413 26.7647 208.815 26.7647C202.517 26.7647 198.544 22.454 198.544 16.8687C198.544 11.2832 202.555 6.97241 208.44 6.97241C213.987 6.97241 217.923 11.3582 217.923 16.8687C217.92 17.5352 217.857 18.2 217.736 18.8554H203.604C204.279 21.3295 206.341 22.379 208.889 22.379ZM213.088 15.1068C212.488 12.4078 210.464 11.3207 208.44 11.3207C205.853 11.3207 204.092 12.7077 203.529 15.1068H213.088Z" fill="#1A1A1E"/>
<path d="M217.923 33.75H71.2471V60H217.923V33.75Z" fill="#FFD300"/>
<path d="M76.083 46.875C76.083 43.7852 78.3779 41.4153 81.5426 41.4153C83.4474 41.4153 85.1272 42.3602 86.0422 43.8452L83.9724 45.0452C83.5074 44.2352 82.6074 43.7553 81.5426 43.7553C79.6827 43.7553 78.4827 45.0002 78.4827 46.875C78.4827 48.7499 79.6827 49.995 81.5426 49.995C82.6074 49.995 83.5224 49.5151 83.9724 48.7049L86.0422 49.9049C85.1423 51.3899 83.4624 52.3348 81.5426 52.3348C78.3779 52.3348 76.083 49.9651 76.083 46.875Z" fill="#1A1A1E"/>
<path d="M90.7077 48.6749H89.5677V52.1249H87.168V41.6253H91.3676C91.8407 41.6241 92.3093 41.7165 92.7466 41.897C93.1838 42.0776 93.5811 42.3427 93.9156 42.6772C94.2501 43.0117 94.5152 43.409 94.6957 43.8463C94.8761 44.2836 94.9685 44.7522 94.9673 45.2253C94.9673 46.5151 94.1873 47.685 93.0324 48.27L95.2673 52.1249H92.6875L90.7077 48.6749ZM89.5677 46.5751H91.3676C92.0276 46.5751 92.5674 45.9901 92.5674 45.2253C92.5674 44.4602 92.0276 43.8753 91.3676 43.8753H89.5677V46.5751Z" fill="#1A1A1E"/>
<path d="M101.117 48.0901V52.1249H98.7171V48.0901L95.1924 41.6252H97.9222L99.917 45.6752L101.912 41.6252H104.642L101.117 48.0901Z" fill="#1A1A1E"/>
<path d="M113.191 45.2252C113.191 47.2202 111.587 48.8249 109.517 48.8249H107.942V52.1249H105.542V41.6252H109.517C111.587 41.6252 113.191 43.2303 113.191 45.2252ZM110.791 45.2252C110.791 44.4602 110.252 43.8752 109.517 43.8752H107.942V46.575H109.517C110.252 46.575 110.791 45.9901 110.791 45.2252Z" fill="#1A1A1E"/>
<path d="M121.291 43.9352H118.591V52.1249H116.191V43.9352H113.491V41.6252H121.291V43.9352Z" fill="#1A1A1E"/>
<path d="M121.291 46.875C121.291 43.7852 123.736 41.4153 126.751 41.4153C129.765 41.4153 132.21 43.7852 132.21 46.875C132.21 49.9651 129.765 52.3348 126.751 52.3348C123.736 52.3348 121.291 49.9651 121.291 46.875ZM129.81 46.875C129.81 45.0002 128.46 43.7553 126.751 43.7553C125.041 43.7553 123.691 45.0002 123.691 46.875C123.691 48.7499 125.041 49.995 126.751 49.995C128.46 49.995 129.81 48.7499 129.81 46.875Z" fill="#1A1A1E"/>
<path d="M143.91 49.8151V52.1249H137.311V41.6252H143.835V43.9352H139.71V45.6752H143.46V47.9549H139.71V49.8151L143.91 49.8151Z" fill="#1A1A1E"/>
<path d="M150.78 52.1249L149.01 49.095L147.241 52.1249H144.511L147.646 46.7401L144.661 41.6252H147.391L149.01 44.4002L150.63 41.6252H153.36L150.375 46.7401L153.51 52.1249L150.78 52.1249Z" fill="#1A1A1E"/>
<path d="M153.51 46.875C153.51 43.7852 155.805 41.4153 158.969 41.4153C160.874 41.4153 162.554 42.3602 163.469 43.8452L161.399 45.0452C160.934 44.2352 160.034 43.7553 158.969 43.7553C157.109 43.7553 155.91 45.0002 155.91 46.875C155.91 48.7499 157.109 49.995 158.969 49.995C160.034 49.995 160.949 49.5151 161.399 48.7049L163.469 49.9049C162.569 51.3899 160.889 52.3348 158.969 52.3348C155.805 52.3348 153.51 49.9651 153.51 46.875Z" fill="#1A1A1E"/>
<path d="M172.694 41.6252V52.1249H170.294V47.9549H166.995V52.1249H164.595V41.6252H166.995V45.6452H170.294V41.6252H172.694Z" fill="#1A1A1E"/>
<path d="M180.643 50.4749H176.744L176.219 52.1249H173.594L177.164 41.6252H180.223L183.793 52.1249H181.168L180.643 50.4749ZM179.923 48.225L178.693 44.3702L177.464 48.225H179.923Z" fill="#1A1A1E"/>
<path d="M192.943 41.6252V52.1249H191.143L187.093 46.425V52.1249H184.693V41.6252H186.493L190.543 47.325V41.6252H192.943Z" fill="#1A1A1E"/>
<path d="M205.137 47.175C205.137 50.385 202.902 52.3348 199.962 52.3348C196.663 52.3348 194.293 49.9049 194.293 46.8901C194.293 43.8452 196.708 41.4153 199.797 41.4153C201.807 41.4153 203.502 42.4053 204.387 43.8151L202.347 44.985C201.912 44.2952 200.967 43.7553 199.782 43.7553C198.013 43.7553 196.693 45.06 196.693 46.9049C196.693 48.6901 197.953 49.995 199.992 49.995C201.387 49.995 202.302 49.3799 202.677 48.3751H199.872V46.2751H205.137V47.175Z" fill="#1A1A1E"/>
<path d="M213.087 49.8151V52.1249H206.487V41.6252H213.012V43.9352H208.887V45.6752H212.637V47.9549H208.887V49.8151L213.087 49.8151Z" fill="#1A1A1E"/>
<path d="M59.9979 0H0V60H59.9979V0Z" fill="#FFD300"/>
<path d="M19.9377 38.5817V32.8606H40.1672C40.5429 32.8606 40.9149 32.9346 41.2619 33.0784C41.609 33.2221 41.9243 33.4328 42.1899 33.6985C42.4556 33.9641 42.6663 34.2794 42.81 34.6265C42.9538 34.9735 43.0278 35.3455 43.0278 35.7212C43.0278 36.0968 42.9538 36.4688 42.81 36.8158C42.6663 37.1629 42.4556 37.4782 42.1899 37.7439C41.9243 38.0095 41.609 38.2202 41.2619 38.364C40.9149 38.5077 40.5429 38.5817 40.1672 38.5817H34.4464L31.3795 50.0239H37.1004L38.6339 44.3028H40.3765C41.476 44.3028 42.5647 44.0863 43.5805 43.6656C44.5963 43.2448 45.5192 42.6281 46.2967 41.8507C47.0741 41.0732 47.6908 40.1502 48.1115 39.1345C48.5322 38.1187 48.7486 37.0299 48.7486 35.9305V34.8839C48.7165 32.6751 47.9086 31.2964 46.8439 30.1912C46.7948 30.1397 46.7675 30.0711 46.7677 29.9998C46.768 29.9286 46.7958 29.8602 46.8453 29.8089C47.9086 28.7038 48.7165 27.3252 48.7486 25.1163V24.0697C48.7485 21.8493 47.8664 19.7198 46.2964 18.1498C44.7264 16.5797 42.5969 15.6975 40.3765 15.6974H38.6339L40.1673 9.97632H34.4465L31.3794 21.4185H40.1672C40.9259 21.4185 41.6535 21.7198 42.1899 22.2563C42.7264 22.7928 43.0278 23.5204 43.0278 24.279C43.0278 25.0377 42.7264 25.7653 42.1899 26.3017C41.6535 26.8382 40.9259 27.1395 40.1672 27.1395H19.9377V21.4185H25.6586L28.7256 9.97632H23.0047L21.4712 15.6974H14.2168V44.3028H21.4712L19.9378 50.0239H25.6586L28.7256 38.5817H19.9377H19.9377Z" fill="#1A1A1E"/>
</svg>
