<svg width="32" height="32" viewBox="0 0 32 32" fill="none" xmlns="http://www.w3.org/2000/svg">
<rect width="32" height="32" rx="16" fill="white"/>
<circle cx="16" cy="16" r="12" fill="#F7931A"/>
<path fill-rule="evenodd" clip-rule="evenodd" d="M20.9686 14.4323C21.2183 12.7511 19.9475 11.8473 18.2099 11.2444L18.7736 8.96696L17.3973 8.62147L16.8486 10.8389C16.4868 10.7481 16.1152 10.6624 15.7459 10.5775L16.2986 8.34548L14.9232 8L14.3591 10.2766C14.0596 10.2079 13.7657 10.14 13.4803 10.0686L13.4819 10.0614L11.5839 9.58409L11.2178 11.0647C11.2178 11.0647 12.2389 11.3004 12.2174 11.3151C12.7747 11.4552 12.8755 11.8268 12.8586 12.1213L12.2166 14.7158C12.255 14.7257 12.3048 14.7399 12.3596 14.762L12.313 14.7503L12.3129 14.7502C12.281 14.7422 12.248 14.7338 12.2142 14.7257L11.3142 18.3601C11.246 18.5307 11.0732 18.7866 10.6835 18.6894C10.6973 18.7096 9.68322 18.4379 9.68322 18.4379L9 20.0248L10.7909 20.4745C10.991 20.525 11.1886 20.5769 11.3841 20.6283C11.5143 20.6625 11.6436 20.6964 11.7721 20.7296L11.2025 23.033L12.5772 23.3785L13.1412 21.0995C13.5168 21.2022 13.8813 21.2969 14.238 21.3862L13.6759 23.6545L15.0521 24L15.6217 21.7009C17.9684 22.1482 19.7331 21.9678 20.4759 19.8297C21.0745 18.1082 20.4461 17.1152 19.2114 16.4677C20.1106 16.2588 20.7879 15.663 20.9686 14.4323ZM17.8242 18.8738C17.434 20.4532 14.9797 19.8003 13.8568 19.5015L13.8567 19.5015C13.7557 19.4746 13.6655 19.4506 13.5885 19.4313L14.3442 16.3796C14.438 16.4032 14.5525 16.4291 14.6823 16.4584L14.6823 16.4584C15.8438 16.721 18.224 17.259 17.8242 18.8738ZM14.9157 15.0422C15.8519 15.2939 17.8942 15.8429 18.2499 14.4074C18.6131 12.9391 16.6283 12.4965 15.6589 12.2804C15.5499 12.2561 15.4537 12.2346 15.3751 12.2149L14.6899 14.9827C14.7547 14.999 14.8306 15.0194 14.9157 15.0422Z" fill="white"/>
</svg>
