<svg width="32" height="32" viewBox="0 0 32 32" fill="none" xmlns="http://www.w3.org/2000/svg">
<rect width="32" height="32" rx="16" fill="#F8F8F8"/>
<circle cx="16" cy="16" r="12" fill="#22A079"/>
<path fill-rule="evenodd" clip-rule="evenodd" d="M17.6242 12.041V14.0353L17.6263 14.0374C21.2648 14.2079 24 14.9439 24 15.8223C24 16.7029 21.2648 17.4367 17.6263 17.6072V24H14.3843V17.6072C10.7416 17.4345 8 16.7007 8 15.8201C8 14.9396 10.7395 14.2058 14.3843 14.0353V12.041H9.89981V9H22.1087V12.041H17.6242ZM17.6242 17.059V17.0611V17.0633C20.8365 16.9165 23.2346 16.3468 23.2346 15.6647C23.2346 14.9827 20.8386 14.413 17.6242 14.2662V16.4935C17.5309 16.5022 17.0305 16.5453 16.0297 16.5453C15.1964 16.5453 14.5921 16.5086 14.3822 16.4935V14.264C11.1635 14.4086 8.75908 14.9806 8.75908 15.6626C8.75908 16.3468 11.1614 16.9165 14.3822 17.0611V17.059C14.59 17.0698 15.1773 17.0935 16.0148 17.0935C17.0623 17.0935 17.533 17.0655 17.6242 17.059Z" fill="white"/>
</svg>
