<svg width="32" height="32" viewBox="0 0 32 32" fill="none" xmlns="http://www.w3.org/2000/svg">
<rect width="32" height="32" rx="16" fill="#F8F8F8"/>
<circle cx="16" cy="16" r="12" fill="#C2A633"/>
<path fill-rule="evenodd" clip-rule="evenodd" d="M15.5137 8.00081L15.8375 8.00935L16.1379 8.02493L16.3004 8.03657L16.5582 8.0598L16.7385 8.07963L16.9251 8.10333L17.2155 8.14688L17.4154 8.18175L17.6197 8.22167L17.8278 8.267C17.8628 8.27502 17.8979 8.28329 17.9332 8.29179L18.1462 8.34586L18.3617 8.40617L18.5793 8.47308C18.6157 8.4848 18.6522 8.49681 18.6887 8.50911L18.9084 8.58654C19.0919 8.65412 19.2761 8.72945 19.4598 8.81341L19.6798 8.91837C21.6557 9.90133 23.5 11.9329 23.5 16.1284C23.5 19.8533 22.0292 21.8229 20.3778 22.8605L20.1828 22.9783C19.9871 23.0919 19.7896 23.1931 19.5924 23.2831L19.3953 23.3695L19.199 23.4488L19.0037 23.5213L18.8101 23.5872L18.6185 23.647L18.4295 23.7008L18.2435 23.749C18.2128 23.7566 18.1822 23.7639 18.1517 23.7711L17.9711 23.8114L17.7946 23.8468L17.5387 23.8915L17.3747 23.916L17.1397 23.9458L16.9911 23.9613L16.7814 23.9789L16.5288 23.9932L16.3618 23.9985L16.1583 24L15.9892 23.9966L15.8672 23.9905L10.4168 23.9896V16.8674H8.5V15.1227H10.4166V8L15.5137 8.00081ZM15.6247 10.9555H13.4794V15.1225H16.8546V16.8672H13.4794V21.034L15.8073 21.034L16.0433 21.0295L16.3095 21.0139L16.4946 20.9961L16.6959 20.9702L16.838 20.9476L16.9854 20.9202L17.1376 20.8876C17.1634 20.8817 17.1892 20.8756 17.2153 20.8692L17.3733 20.8279L17.5342 20.7803C17.6153 20.7548 17.6973 20.7267 17.7797 20.6958L17.945 20.6303L18.1108 20.5567C19.2995 20.0002 20.4738 18.795 20.4704 16.186C20.4669 13.5456 19.299 12.2325 18.0949 11.5827L17.9268 11.4963C17.8427 11.4551 17.7587 11.4171 17.6751 11.3819L17.5088 11.3152L17.3444 11.2558C17.3172 11.2464 17.2901 11.2374 17.2631 11.2286L17.1028 11.1792C17.0764 11.1715 17.0501 11.164 17.024 11.1569L16.8694 11.1166L16.7194 11.082L16.5748 11.0525L16.4362 11.0279L16.3042 11.0076L16.1796 10.9914L16.008 10.9737L15.9048 10.9657L15.7684 10.9584L15.6247 10.9555Z" fill="white"/>
</svg>
