<svg width="32" height="32" viewBox="0 0 32 32" fill="none" xmlns="http://www.w3.org/2000/svg">
<rect width="32" height="32" rx="16" fill="#F8F8F8"/>
<circle cx="16" cy="16" r="12" fill="#A5A8A9"/>
<path d="M16.1945 16.3947L14.9463 20.6066H21.6227C21.7303 20.6069 21.8316 20.6577 21.8961 20.7439C21.9606 20.8301 21.9808 20.9416 21.9507 21.0449L21.3701 23.0449C21.3132 23.2412 21.1333 23.3762 20.9289 23.3758H10.7315L12.4558 17.5529L10.5486 18.1335L10.9695 16.7721L12.8796 16.1915L15.3005 8.01155C15.3552 7.81456 15.5343 7.6781 15.7388 7.67774H18.3222C18.4297 7.67735 18.5311 7.72744 18.5962 7.813C18.6612 7.89857 18.6823 8.0097 18.6531 8.11315L16.6212 15.0304L18.5283 14.4499L18.119 15.8345L16.1945 16.3947Z" fill="white"/>
</svg>
